<svg width="273" height="51" viewBox="0 0 273 51" fill="none" xmlns="http://www.w3.org/2000/svg">
<g clip-path="url(#clip0_677_13)">
<path d="M39.3346 37.7188C41.4041 41.0297 42.3794 42.7875 42.3794 44.6211C42.3794 48.2422 39.7326 49.998 36.167 49.998C34.5953 49.998 33.5807 49.9959 31.0165 48.6404C31.0165 48.6404 29.3551 47.0956 25.4671 47.2542C21.5428 47.0966 19.8804 48.6599 19.8804 48.6599C17.3163 50.0143 16.338 50 14.7682 50C11.2026 50 8.55385 48.2463 8.55385 44.6232C8.55385 42.7896 9.53216 41.0338 11.6006 37.7209C11.6006 37.7209 15.5108 31.1227 18.8991 28.0186C21.3474 25.7786 24.917 25.7868 24.917 25.7868H26.0182C26.0182 25.7868 29.744 25.7765 32.0392 28.0186C35.3227 31.2353 39.3346 37.7199 39.3346 37.7188ZM16.7561 21.3743C20.4839 21.3743 23.5055 16.5892 23.5055 10.6872C23.5055 4.78511 20.4839 0 16.7561 0C13.0283 0 10.0067 4.78511 10.0067 10.6872C10.0067 16.5892 13.0283 21.3743 16.7561 21.3743ZM10.2878 31.7246C13.0353 30.4357 13.662 25.8656 11.6862 21.5166C9.71049 17.1676 5.88191 14.686 3.1344 15.9739C0.386884 17.2618 -0.238787 21.833 1.73596 26.1819C3.71171 30.5309 7.54029 33.0115 10.2878 31.7246ZM32.4482 21.3743C36.1761 21.3743 39.1986 16.5892 39.1986 10.6872C39.1986 4.78511 36.1761 0 32.4482 0C28.7204 0 25.6989 4.78511 25.6989 10.6872C25.6989 16.5892 28.7204 21.3743 32.4482 21.3743ZM46.0709 15.9729C43.3224 14.684 39.4948 17.1656 37.5191 21.5156C35.5433 25.8656 36.17 30.4357 38.9185 31.7246C41.6671 33.0126 45.4946 30.5309 47.4704 26.1819C49.4461 21.833 48.8195 17.2618 46.0709 15.9729Z" fill="#FFA500"/>
</g>
<path d="M86.3264 20.72C86.3264 22.2133 85.9664 23.6133 85.2464 24.92C84.553 26.2267 83.4464 27.28 81.9264 28.08C80.433 28.88 78.5397 29.28 76.2464 29.28H71.5664V40H65.9664V12.08H76.2464C78.4064 12.08 80.2464 12.4533 81.7664 13.2C83.2864 13.9467 84.4197 14.9733 85.1664 16.28C85.9397 17.5867 86.3264 19.0667 86.3264 20.72ZM76.0064 24.76C77.553 24.76 78.6997 24.4133 79.4464 23.72C80.193 23 80.5664 22 80.5664 20.72C80.5664 18 79.0464 16.64 76.0064 16.64H71.5664V24.76H76.0064ZM111.622 17.84V40H105.982V37.2C105.262 38.16 104.316 38.92 103.142 39.48C101.996 40.0133 100.742 40.28 99.3823 40.28C97.649 40.28 96.1156 39.92 94.7823 39.2C93.449 38.4533 92.3956 37.3733 91.6223 35.96C90.8756 34.52 90.5023 32.8133 90.5023 30.84V17.84H96.1023V30.04C96.1023 31.8 96.5423 33.16 97.4223 34.12C98.3023 35.0533 99.5023 35.52 101.022 35.52C102.569 35.52 103.782 35.0533 104.662 34.12C105.542 33.16 105.982 31.8 105.982 30.04V17.84H111.622ZM123.148 21.04C123.868 20.0267 124.854 19.1867 126.108 18.52C127.388 17.8267 128.841 17.48 130.468 17.48C132.361 17.48 134.068 17.9467 135.588 18.88C137.134 19.8133 138.348 21.1467 139.228 22.88C140.134 24.5867 140.588 26.5733 140.588 28.84C140.588 31.1067 140.134 33.12 139.228 34.88C138.348 36.6133 137.134 37.96 135.588 38.92C134.068 39.88 132.361 40.36 130.468 40.36C128.841 40.36 127.401 40.0267 126.148 39.36C124.921 38.6933 123.921 37.8533 123.148 36.84V50.56H117.548V17.84H123.148V21.04ZM134.868 28.84C134.868 27.5067 134.588 26.36 134.028 25.4C133.494 24.4133 132.774 23.6667 131.868 23.16C130.988 22.6533 130.028 22.4 128.988 22.4C127.974 22.4 127.014 22.6667 126.108 23.2C125.228 23.7067 124.508 24.4533 123.948 25.44C123.414 26.4267 123.148 27.5867 123.148 28.92C123.148 30.2533 123.414 31.4133 123.948 32.4C124.508 33.3867 125.228 34.1467 126.108 34.68C127.014 35.1867 127.974 35.44 128.988 35.44C130.028 35.44 130.988 35.1733 131.868 34.64C132.774 34.1067 133.494 33.3467 134.028 32.36C134.588 31.3733 134.868 30.2 134.868 28.84ZM150.657 21.04C151.377 20.0267 152.364 19.1867 153.617 18.52C154.897 17.8267 156.35 17.48 157.977 17.48C159.87 17.48 161.577 17.9467 163.097 18.88C164.644 19.8133 165.857 21.1467 166.737 22.88C167.644 24.5867 168.097 26.5733 168.097 28.84C168.097 31.1067 167.644 33.12 166.737 34.88C165.857 36.6133 164.644 37.96 163.097 38.92C161.577 39.88 159.87 40.36 157.977 40.36C156.35 40.36 154.91 40.0267 153.657 39.36C152.43 38.6933 151.43 37.8533 150.657 36.84V50.56H145.057V17.84H150.657V21.04ZM162.377 28.84C162.377 27.5067 162.097 26.36 161.537 25.4C161.004 24.4133 160.284 23.6667 159.377 23.16C158.497 22.6533 157.537 22.4 156.497 22.4C155.484 22.4 154.524 22.6667 153.617 23.2C152.737 23.7067 152.017 24.4533 151.457 25.44C150.924 26.4267 150.657 27.5867 150.657 28.92C150.657 30.2533 150.924 31.4133 151.457 32.4C152.017 33.3867 152.737 34.1467 153.617 34.68C154.524 35.1867 155.484 35.44 156.497 35.44C157.537 35.44 158.497 35.1733 159.377 34.64C160.284 34.1067 161.004 33.3467 161.537 32.36C162.097 31.3733 162.377 30.2 162.377 28.84ZM175.406 15.2C174.42 15.2 173.593 14.8933 172.926 14.28C172.286 13.64 171.966 12.8533 171.966 11.92C171.966 10.9867 172.286 10.2133 172.926 9.6C173.593 8.96 174.42 8.64 175.406 8.64C176.393 8.64 177.206 8.96 177.846 9.6C178.513 10.2133 178.846 10.9867 178.846 11.92C178.846 12.8533 178.513 13.64 177.846 14.28C177.206 14.8933 176.393 15.2 175.406 15.2ZM178.166 17.84V40H172.566V17.84H178.166ZM204.699 28.44C204.699 29.24 204.646 29.96 204.539 30.6H188.339C188.473 32.2 189.033 33.4533 190.019 34.36C191.006 35.2667 192.219 35.72 193.659 35.72C195.739 35.72 197.219 34.8267 198.099 33.04H204.139C203.499 35.1733 202.273 36.9333 200.459 38.32C198.646 39.68 196.419 40.36 193.779 40.36C191.646 40.36 189.726 39.8933 188.019 38.96C186.339 38 185.019 36.6533 184.059 34.92C183.126 33.1867 182.659 31.1867 182.659 28.92C182.659 26.6267 183.126 24.6133 184.059 22.88C184.993 21.1467 186.299 19.8133 187.979 18.88C189.659 17.9467 191.593 17.48 193.779 17.48C195.886 17.48 197.766 17.9333 199.419 18.84C201.099 19.7467 202.393 21.04 203.299 22.72C204.233 24.3733 204.699 26.28 204.699 28.44ZM198.899 26.84C198.873 25.4 198.353 24.2533 197.339 23.4C196.326 22.52 195.086 22.08 193.619 22.08C192.233 22.08 191.059 22.5067 190.099 23.36C189.166 24.1867 188.593 25.3467 188.379 26.84H198.899ZM214.307 35.4H224.187V40H207.947V35.48L217.627 22.44H207.987V17.84H224.067V22.36L214.307 35.4Z" fill="white"/>
<defs>
<clipPath id="clip0_677_13">
<rect width="49.2063" height="50" fill="white"/>
</clipPath>
</defs>
</svg>
